<?xml version="1.0" encoding="UTF-8" standalone="no"?>
<!DOCTYPE svg PUBLIC "-//W3C//DTD SVG 1.1//EN"
 "http://www.w3.org/Graphics/SVG/1.1/DTD/svg11.dtd">
<!-- Generated by graphviz version 2.38.0 (20140413.2041)
 -->
<!-- Title: deps Pages: 1 -->
<svg width="529pt" height="260pt"
 viewBox="0.00 0.00 528.78 260.00" xmlns="http://www.w3.org/2000/svg" xmlns:xlink="http://www.w3.org/1999/xlink">
<g id="graph0" class="graph" transform="scale(1 1) rotate(0) translate(4 256)">
<title>deps</title>
<polygon fill="white" stroke="none" points="-4,4 -4,-256 524.781,-256 524.781,4 -4,4"/>
<!-- mor&#45;cli -->
<g id="node1" class="node"><title>mor&#45;cli</title>
<ellipse fill="none" stroke="black" cx="181.691" cy="-234" rx="35.9272" ry="18"/>
<text text-anchor="middle" x="181.691" y="-229.8" font-family="Times,serif" font-size="14.00">mor&#45;cli</text>
</g>
<!-- mor&#45;core -->
<g id="node2" class="node"><title>mor&#45;core</title>
<ellipse fill="none" stroke="black" cx="288.691" cy="-18" rx="42.1834" ry="18"/>
<text text-anchor="middle" x="288.691" y="-13.8" font-family="Times,serif" font-size="14.00">mor&#45;core</text>
</g>
<!-- mor&#45;cli&#45;&gt;mor&#45;core -->
<g id="edge1" class="edge"><title>mor&#45;cli&#45;&gt;mor&#45;core</title>
<path fill="none" stroke="black" d="M146.763,-229.29C86.2208,-221.347 -28.5286,-198.754 6.69108,-144 57.5659,-64.9084 171.337,-35.5065 237.777,-24.8399"/>
<polygon fill="black" stroke="black" points="238.656,-28.2466 248.017,-23.2841 237.605,-21.326 238.656,-28.2466"/>
</g>
<!-- mor&#45;command&#45;ls -->
<g id="node3" class="node"><title>mor&#45;command&#45;ls</title>
<ellipse fill="none" stroke="black" cx="434.691" cy="-162" rx="70.6821" ry="18"/>
<text text-anchor="middle" x="434.691" y="-157.8" font-family="Times,serif" font-size="14.00">mor&#45;command&#45;ls</text>
</g>
<!-- mor&#45;cli&#45;&gt;mor&#45;command&#45;ls -->
<g id="edge2" class="edge"><title>mor&#45;cli&#45;&gt;mor&#45;command&#45;ls</title>
<path fill="none" stroke="black" d="M212.461,-224.487C253.696,-213.078 327.613,-192.626 378.815,-178.46"/>
<polygon fill="black" stroke="black" points="380.031,-181.755 388.736,-175.715 378.165,-175.008 380.031,-181.755"/>
</g>
<!-- mor&#45;command&#45;test -->
<g id="node4" class="node"><title>mor&#45;command&#45;test</title>
<ellipse fill="none" stroke="black" cx="268.691" cy="-162" rx="77.4467" ry="18"/>
<text text-anchor="middle" x="268.691" y="-157.8" font-family="Times,serif" font-size="14.00">mor&#45;command&#45;test</text>
</g>
<!-- mor&#45;cli&#45;&gt;mor&#45;command&#45;test -->
<g id="edge3" class="edge"><title>mor&#45;cli&#45;&gt;mor&#45;command&#45;test</title>
<path fill="none" stroke="black" d="M200.142,-218.155C211.79,-208.783 227.073,-196.486 240.253,-185.882"/>
<polygon fill="black" stroke="black" points="242.538,-188.535 248.135,-179.539 238.15,-183.081 242.538,-188.535"/>
</g>
<!-- mor&#45;command&#45;root -->
<g id="node5" class="node"><title>mor&#45;command&#45;root</title>
<ellipse fill="none" stroke="black" cx="94.6911" cy="-162" rx="79.376" ry="18"/>
<text text-anchor="middle" x="94.6911" y="-157.8" font-family="Times,serif" font-size="14.00">mor&#45;command&#45;root</text>
</g>
<!-- mor&#45;cli&#45;&gt;mor&#45;command&#45;root -->
<g id="edge4" class="edge"><title>mor&#45;cli&#45;&gt;mor&#45;command&#45;root</title>
<path fill="none" stroke="black" d="M163.241,-218.155C151.592,-208.783 136.309,-196.486 123.13,-185.882"/>
<polygon fill="black" stroke="black" points="125.232,-183.081 115.247,-179.539 120.844,-188.535 125.232,-183.081"/>
</g>
<!-- mor&#45;command&#45;ls&#45;&gt;mor&#45;core -->
<g id="edge5" class="edge"><title>mor&#45;command&#45;ls&#45;&gt;mor&#45;core</title>
<path fill="none" stroke="black" d="M435.51,-143.92C435.53,-124.37 432.646,-92.4225 415.691,-72 396.137,-48.4466 364.342,-35.1936 337.458,-27.8304"/>
<polygon fill="black" stroke="black" points="337.984,-24.3531 327.431,-25.2876 336.264,-31.1384 337.984,-24.3531"/>
</g>
<!-- mor&#45;helper&#45;filter -->
<g id="node6" class="node"><title>mor&#45;helper&#45;filter</title>
<ellipse fill="none" stroke="black" cx="337.691" cy="-90" rx="68.8901" ry="18"/>
<text text-anchor="middle" x="337.691" y="-85.8" font-family="Times,serif" font-size="14.00">mor&#45;helper&#45;filter</text>
</g>
<!-- mor&#45;command&#45;ls&#45;&gt;mor&#45;helper&#45;filter -->
<g id="edge6" class="edge"><title>mor&#45;command&#45;ls&#45;&gt;mor&#45;helper&#45;filter</title>
<path fill="none" stroke="black" d="M412.194,-144.765C399.216,-135.4 382.713,-123.49 368.539,-113.261"/>
<polygon fill="black" stroke="black" points="370.224,-110.161 360.067,-107.147 366.127,-115.837 370.224,-110.161"/>
</g>
<!-- mor&#45;command&#45;test&#45;&gt;mor&#45;core -->
<g id="edge8" class="edge"><title>mor&#45;command&#45;test&#45;&gt;mor&#45;core</title>
<path fill="none" stroke="black" d="M263.508,-144.007C258.783,-125.901 253.42,-96.5252 259.691,-72 262.134,-62.4479 266.692,-52.7648 271.484,-44.3348"/>
<polygon fill="black" stroke="black" points="274.5,-46.1116 276.685,-35.7447 268.512,-42.4857 274.5,-46.1116"/>
</g>
<!-- mor&#45;command&#45;test&#45;&gt;mor&#45;helper&#45;filter -->
<g id="edge9" class="edge"><title>mor&#45;command&#45;test&#45;&gt;mor&#45;helper&#45;filter</title>
<path fill="none" stroke="black" d="M285.394,-144.055C293.954,-135.371 304.527,-124.644 313.922,-115.114"/>
<polygon fill="black" stroke="black" points="316.614,-117.368 321.142,-107.789 311.629,-112.454 316.614,-117.368"/>
</g>
<!-- mor&#45;command&#45;root&#45;&gt;mor&#45;core -->
<g id="edge7" class="edge"><title>mor&#45;command&#45;root&#45;&gt;mor&#45;core</title>
<path fill="none" stroke="black" d="M116.945,-144.711C152.291,-118.839 221.235,-68.3754 260.161,-39.883"/>
<polygon fill="black" stroke="black" points="262.448,-42.5462 268.45,-33.8155 258.314,-36.8976 262.448,-42.5462"/>
</g>
<!-- mor&#45;helper&#45;filter&#45;&gt;mor&#45;core -->
<g id="edge10" class="edge"><title>mor&#45;helper&#45;filter&#45;&gt;mor&#45;core</title>
<path fill="none" stroke="black" d="M325.83,-72.055C319.991,-63.7147 312.835,-53.4908 306.367,-44.2517"/>
<polygon fill="black" stroke="black" points="309.045,-41.9742 300.443,-35.789 303.311,-45.9885 309.045,-41.9742"/>
</g>
<!-- tool -->
<g id="node7" class="node"><title>tool</title>
<ellipse fill="none" stroke="black" cx="351.691" cy="-234" rx="27" ry="18"/>
<text text-anchor="middle" x="351.691" y="-229.8" font-family="Times,serif" font-size="14.00">tool</text>
</g>
<!-- tool&#45;&gt;mor&#45;core -->
<g id="edge11" class="edge"><title>tool&#45;&gt;mor&#45;core</title>
<path fill="none" stroke="black" d="M378.879,-233.185C416.543,-231.788 483.475,-222.975 514.691,-180 524.094,-167.055 521.013,-158.698 514.691,-144 484.44,-73.6705 394.003,-41.5498 337.123,-27.9559"/>
<polygon fill="black" stroke="black" points="337.79,-24.518 327.261,-25.7035 336.231,-31.3423 337.79,-24.518"/>
</g>
<!-- tool&#45;&gt;mor&#45;command&#45;ls -->
<g id="edge12" class="edge"><title>tool&#45;&gt;mor&#45;command&#45;ls</title>
<path fill="none" stroke="black" d="M368.089,-219.17C379.279,-209.733 394.368,-197.008 407.354,-186.055"/>
<polygon fill="black" stroke="black" points="409.727,-188.633 415.115,-179.51 405.214,-183.282 409.727,-188.633"/>
</g>
<!-- tool&#45;&gt;mor&#45;command&#45;test -->
<g id="edge14" class="edge"><title>tool&#45;&gt;mor&#45;command&#45;test</title>
<path fill="none" stroke="black" d="M335.293,-219.17C324.104,-209.733 309.014,-197.008 296.028,-186.055"/>
<polygon fill="black" stroke="black" points="298.168,-183.282 288.267,-179.51 293.655,-188.633 298.168,-183.282"/>
</g>
<!-- tool&#45;&gt;mor&#45;command&#45;root -->
<g id="edge13" class="edge"><title>tool&#45;&gt;mor&#45;command&#45;root</title>
<path fill="none" stroke="black" d="M327.049,-226.288C287.427,-215.496 208.458,-193.987 153.647,-179.058"/>
<polygon fill="black" stroke="black" points="154.277,-175.602 143.709,-176.351 152.438,-182.356 154.277,-175.602"/>
</g>
</g>
</svg>
