<?xml version="1.0" encoding="UTF-8" standalone="no"?>
<!DOCTYPE svg PUBLIC "-//W3C//DTD SVG 1.1//EN"
 "http://www.w3.org/Graphics/SVG/1.1/DTD/svg11.dtd">
<!-- Generated by graphviz version 2.38.0 (20140413.2041)
 -->
<!-- Title: deps Pages: 1 -->
<svg width="698pt" height="404pt"
 viewBox="0.00 0.00 697.58 404.00" xmlns="http://www.w3.org/2000/svg" xmlns:xlink="http://www.w3.org/1999/xlink">
<g id="graph0" class="graph" transform="scale(1 1) rotate(0) translate(4 400)">
<title>deps</title>
<polygon fill="white" stroke="none" points="-4,4 -4,-400 693.58,-400 693.58,4 -4,4"/>
<!-- mor&#45;cli -->
<g id="node1" class="node"><title>mor&#45;cli</title>
<ellipse fill="none" stroke="black" cx="169.134" cy="-378" rx="35.9272" ry="18"/>
<text text-anchor="middle" x="169.134" y="-373.8" font-family="Times,serif" font-size="14.00">mor&#45;cli</text>
</g>
<!-- mor&#45;core -->
<g id="node2" class="node"><title>mor&#45;core</title>
<ellipse fill="none" stroke="black" cx="231.134" cy="-162" rx="42.1834" ry="18"/>
<text text-anchor="middle" x="231.134" y="-157.8" font-family="Times,serif" font-size="14.00">mor&#45;core</text>
</g>
<!-- mor&#45;cli&#45;&gt;mor&#45;core -->
<g id="edge1" class="edge"><title>mor&#45;cli&#45;&gt;mor&#45;core</title>
<path fill="none" stroke="black" d="M132.926,-376.729C94.3618,-374.259 34.9893,-363.725 6.13379,-324 -3.26941,-311.055 -0.329859,-302.636 6.13379,-288 36.9574,-218.203 126.759,-185.904 183.151,-172.133"/>
<polygon fill="black" stroke="black" points="183.986,-175.532 192.927,-169.849 182.393,-168.716 183.986,-175.532"/>
</g>
<!-- mor&#45;command&#45;ls -->
<g id="node3" class="node"><title>mor&#45;command&#45;ls</title>
<ellipse fill="none" stroke="black" cx="86.1338" cy="-306" rx="70.6821" ry="18"/>
<text text-anchor="middle" x="86.1338" y="-301.8" font-family="Times,serif" font-size="14.00">mor&#45;command&#45;ls</text>
</g>
<!-- mor&#45;cli&#45;&gt;mor&#45;command&#45;ls -->
<g id="edge2" class="edge"><title>mor&#45;cli&#45;&gt;mor&#45;command&#45;ls</title>
<path fill="none" stroke="black" d="M151.532,-362.155C140.524,-352.871 126.113,-340.717 113.621,-330.182"/>
<polygon fill="black" stroke="black" points="115.645,-327.311 105.744,-323.539 111.132,-332.662 115.645,-327.311"/>
</g>
<!-- mor&#45;command&#45;test -->
<g id="node4" class="node"><title>mor&#45;command&#45;test</title>
<ellipse fill="none" stroke="black" cx="252.134" cy="-306" rx="77.4467" ry="18"/>
<text text-anchor="middle" x="252.134" y="-301.8" font-family="Times,serif" font-size="14.00">mor&#45;command&#45;test</text>
</g>
<!-- mor&#45;cli&#45;&gt;mor&#45;command&#45;test -->
<g id="edge3" class="edge"><title>mor&#45;cli&#45;&gt;mor&#45;command&#45;test</title>
<path fill="none" stroke="black" d="M186.736,-362.155C197.744,-352.871 212.155,-340.717 224.646,-330.182"/>
<polygon fill="black" stroke="black" points="227.135,-332.662 232.523,-323.539 222.622,-327.311 227.135,-332.662"/>
</g>
<!-- mor&#45;command&#45;root -->
<g id="node5" class="node"><title>mor&#45;command&#45;root</title>
<ellipse fill="none" stroke="black" cx="426.134" cy="-306" rx="79.376" ry="18"/>
<text text-anchor="middle" x="426.134" y="-301.8" font-family="Times,serif" font-size="14.00">mor&#45;command&#45;root</text>
</g>
<!-- mor&#45;cli&#45;&gt;mor&#45;command&#45;root -->
<g id="edge4" class="edge"><title>mor&#45;cli&#45;&gt;mor&#45;command&#45;root</title>
<path fill="none" stroke="black" d="M199.879,-368.626C241.184,-357.375 315.422,-337.155 367.566,-322.952"/>
<polygon fill="black" stroke="black" points="368.63,-326.29 377.358,-320.285 366.79,-319.536 368.63,-326.29"/>
</g>
<!-- mor&#45;module&#45;graph -->
<g id="node7" class="node"><title>mor&#45;module&#45;graph</title>
<ellipse fill="none" stroke="black" cx="135.134" cy="-90" rx="76.9622" ry="18"/>
<text text-anchor="middle" x="135.134" y="-85.8" font-family="Times,serif" font-size="14.00">mor&#45;module&#45;graph</text>
</g>
<!-- mor&#45;core&#45;&gt;mor&#45;module&#45;graph -->
<g id="edge10" class="edge"><title>mor&#45;core&#45;&gt;mor&#45;module&#45;graph</title>
<path fill="none" stroke="black" d="M210.775,-146.155C197.708,-136.627 180.496,-124.077 165.792,-113.355"/>
<polygon fill="black" stroke="black" points="167.617,-110.354 157.475,-107.29 163.493,-116.01 167.617,-110.354"/>
</g>
<!-- mor&#45;workspace&#45;modules -->
<g id="node8" class="node"><title>mor&#45;workspace&#45;modules</title>
<ellipse fill="none" stroke="black" cx="328.134" cy="-90" rx="97.7014" ry="18"/>
<text text-anchor="middle" x="328.134" y="-85.8" font-family="Times,serif" font-size="14.00">mor&#45;workspace&#45;modules</text>
</g>
<!-- mor&#45;core&#45;&gt;mor&#45;workspace&#45;modules -->
<g id="edge11" class="edge"><title>mor&#45;core&#45;&gt;mor&#45;workspace&#45;modules</title>
<path fill="none" stroke="black" d="M251.705,-146.155C264.815,-136.694 282.054,-124.253 296.842,-113.582"/>
<polygon fill="black" stroke="black" points="299.154,-116.229 305.215,-107.539 295.058,-110.553 299.154,-116.229"/>
</g>
<!-- mor&#45;command&#45;ls&#45;&gt;mor&#45;core -->
<g id="edge5" class="edge"><title>mor&#45;command&#45;ls&#45;&gt;mor&#45;core</title>
<path fill="none" stroke="black" d="M85.3255,-287.928C85.3145,-268.386 88.2078,-236.446 105.134,-216 124.457,-192.658 155.85,-179.416 182.466,-172.005"/>
<polygon fill="black" stroke="black" points="183.59,-175.33 192.398,-169.441 181.84,-168.552 183.59,-175.33"/>
</g>
<!-- mor&#45;helper&#45;filter -->
<g id="node6" class="node"><title>mor&#45;helper&#45;filter</title>
<ellipse fill="none" stroke="black" cx="183.134" cy="-234" rx="68.8901" ry="18"/>
<text text-anchor="middle" x="183.134" y="-229.8" font-family="Times,serif" font-size="14.00">mor&#45;helper&#45;filter</text>
</g>
<!-- mor&#45;command&#45;ls&#45;&gt;mor&#45;helper&#45;filter -->
<g id="edge6" class="edge"><title>mor&#45;command&#45;ls&#45;&gt;mor&#45;helper&#45;filter</title>
<path fill="none" stroke="black" d="M108.631,-288.765C121.609,-279.4 138.112,-267.49 152.286,-257.261"/>
<polygon fill="black" stroke="black" points="154.697,-259.837 160.758,-251.147 150.601,-254.161 154.697,-259.837"/>
</g>
<!-- mor&#45;command&#45;test&#45;&gt;mor&#45;core -->
<g id="edge8" class="edge"><title>mor&#45;command&#45;test&#45;&gt;mor&#45;core</title>
<path fill="none" stroke="black" d="M257.387,-287.989C262.17,-269.867 267.581,-240.479 261.134,-216 258.602,-206.389 253.885,-196.69 248.929,-188.264"/>
<polygon fill="black" stroke="black" points="251.827,-186.297 243.549,-179.684 245.896,-190.016 251.827,-186.297"/>
</g>
<!-- mor&#45;command&#45;test&#45;&gt;mor&#45;helper&#45;filter -->
<g id="edge9" class="edge"><title>mor&#45;command&#45;test&#45;&gt;mor&#45;helper&#45;filter</title>
<path fill="none" stroke="black" d="M235.431,-288.055C226.871,-279.371 216.298,-268.644 206.903,-259.114"/>
<polygon fill="black" stroke="black" points="209.196,-256.454 199.683,-251.789 204.21,-261.368 209.196,-256.454"/>
</g>
<!-- mor&#45;command&#45;root&#45;&gt;mor&#45;core -->
<g id="edge7" class="edge"><title>mor&#45;command&#45;root&#45;&gt;mor&#45;core</title>
<path fill="none" stroke="black" d="M403.765,-288.711C368.237,-262.839 298.938,-212.375 259.811,-183.883"/>
<polygon fill="black" stroke="black" points="261.623,-180.873 251.479,-177.815 257.502,-186.531 261.623,-180.873"/>
</g>
<!-- mor&#45;helper&#45;filter&#45;&gt;mor&#45;core -->
<g id="edge12" class="edge"><title>mor&#45;helper&#45;filter&#45;&gt;mor&#45;core</title>
<path fill="none" stroke="black" d="M194.753,-216.055C200.472,-207.715 207.483,-197.491 213.818,-188.252"/>
<polygon fill="black" stroke="black" points="216.853,-190.016 219.621,-179.789 211.079,-186.057 216.853,-190.016"/>
</g>
<!-- mor&#45;graph -->
<g id="node9" class="node"><title>mor&#45;graph</title>
<ellipse fill="none" stroke="black" cx="135.134" cy="-18" rx="47.0207" ry="18"/>
<text text-anchor="middle" x="135.134" y="-13.8" font-family="Times,serif" font-size="14.00">mor&#45;graph</text>
</g>
<!-- mor&#45;module&#45;graph&#45;&gt;mor&#45;graph -->
<g id="edge13" class="edge"><title>mor&#45;module&#45;graph&#45;&gt;mor&#45;graph</title>
<path fill="none" stroke="black" d="M135.134,-71.6966C135.134,-63.9827 135.134,-54.7125 135.134,-46.1124"/>
<polygon fill="black" stroke="black" points="138.634,-46.1043 135.134,-36.1043 131.634,-46.1044 138.634,-46.1043"/>
</g>
<!-- tool -->
<g id="node10" class="node"><title>tool</title>
<ellipse fill="none" stroke="black" cx="426.134" cy="-378" rx="27" ry="18"/>
<text text-anchor="middle" x="426.134" y="-373.8" font-family="Times,serif" font-size="14.00">tool</text>
</g>
<!-- tool&#45;&gt;mor&#45;core -->
<g id="edge15" class="edge"><title>tool&#45;&gt;mor&#45;core</title>
<path fill="none" stroke="black" d="M450.477,-369.851C471.521,-362.234 500.622,-347.912 514.134,-324 522.005,-310.07 522.868,-301.406 514.134,-288 462.647,-208.973 348.633,-179.547 282.101,-168.859"/>
<polygon fill="black" stroke="black" points="282.26,-165.343 271.847,-167.3 281.207,-172.263 282.26,-165.343"/>
</g>
<!-- tool&#45;&gt;mor&#45;command&#45;ls -->
<g id="edge16" class="edge"><title>tool&#45;&gt;mor&#45;command&#45;ls</title>
<path fill="none" stroke="black" d="M400.655,-371.879C354.072,-362.501 252.05,-341.885 166.134,-324 160.434,-322.814 154.509,-321.571 148.575,-320.321"/>
<polygon fill="black" stroke="black" points="149.128,-316.861 138.621,-318.218 147.682,-323.71 149.128,-316.861"/>
</g>
<!-- tool&#45;&gt;mor&#45;command&#45;test -->
<g id="edge18" class="edge"><title>tool&#45;&gt;mor&#45;command&#45;test</title>
<path fill="none" stroke="black" d="M403.386,-367.849C376.976,-357.224 332.717,-339.419 298.88,-325.806"/>
<polygon fill="black" stroke="black" points="299.775,-322.393 289.191,-321.908 297.162,-328.888 299.775,-322.393"/>
</g>
<!-- tool&#45;&gt;mor&#45;command&#45;root -->
<g id="edge17" class="edge"><title>tool&#45;&gt;mor&#45;command&#45;root</title>
<path fill="none" stroke="black" d="M426.134,-359.697C426.134,-351.983 426.134,-342.712 426.134,-334.112"/>
<polygon fill="black" stroke="black" points="429.634,-334.104 426.134,-324.104 422.634,-334.104 429.634,-334.104"/>
</g>
<!-- mor&#45;cli&#45;helpers -->
<g id="node11" class="node"><title>mor&#45;cli&#45;helpers</title>
<ellipse fill="none" stroke="black" cx="625.134" cy="-306" rx="64.3916" ry="18"/>
<text text-anchor="middle" x="625.134" y="-301.8" font-family="Times,serif" font-size="14.00">mor&#45;cli&#45;helpers</text>
</g>
<!-- tool&#45;&gt;mor&#45;cli&#45;helpers -->
<g id="edge14" class="edge"><title>tool&#45;&gt;mor&#45;cli&#45;helpers</title>
<path fill="none" stroke="black" d="M449.743,-368.695C480.94,-357.721 536.643,-338.127 576.918,-323.96"/>
<polygon fill="black" stroke="black" points="578.271,-327.195 586.543,-320.575 575.949,-320.591 578.271,-327.195"/>
</g>
</g>
</svg>
